<svg width="408" height="364" version="1.1" xmlns="http://www.w3.org/2000/svg" desc="Created with imagetracer.js version 1.2.6" ><path fill="rgb(197,217,234)" stroke="rgb(197,217,234)" stroke-width="1" opacity="1" d="M 178.5 66 L 185 66.5 L 178.5 67 L 178.5 66 Z " /><path fill="rgb(197,217,234)" stroke="rgb(197,217,234)" stroke-width="1" opacity="1" d="M 214.5 66 L 221 66.5 L 214.5 67 L 214.5 66 Z " /><path fill="rgb(197,217,234)" stroke="rgb(197,217,234)" stroke-width="1" opacity="1" d="M 167.5 67 L 171 67.5 L 167.5 68 L 167.5 67 Z " /><path fill="rgb(197,217,234)" stroke="rgb(197,217,234)" stroke-width="1" opacity="1" d="M 228.5 67 L 232 67.5 L 228.5 68 L 228.5 67 Z " /><path fill="rgb(197,217,234)" stroke="rgb(197,217,234)" stroke-width="1" opacity="1" d="M 159.5 68 L 162 68.5 L 159.5 69 L 159.5 68 Z " /><path fill="rgb(197,217,234)" stroke="rgb(197,217,234)" stroke-width="1" opacity="1" d="M 237.5 68 L 240 68.5 L 237.5 69 L 237.5 68 Z " /><path fill="rgb(197,217,234)" stroke="rgb(197,217,234)" stroke-width="1" opacity="1" d="M 244.5 69 L 247 69.5 L 244.5 70 L 244.5 69 Z " /><path fill="rgb(197,217,234)" stroke="rgb(197,217,234)" stroke-width="1" opacity="1" d="M 184.5 80 L 198 80.5 L 184.5 81 L 184.5 80 Z " /><path fill="rgb(197,217,234)" stroke="rgb(197,217,234)" stroke-width="1" opacity="1" d="M 202.5 80 L 215 80.5 L 202.5 81 L 202.5 80 Z " /><path fill="rgb(197,217,234)" stroke="rgb(197,217,234)" stroke-width="1" opacity="1" d="M 171.5 81 L 175 81.5 L 171.5 82 L 171.5 81 Z " /><path fill="rgb(197,217,234)" stroke="rgb(197,217,234)" stroke-width="1" opacity="1" d="M 224.5 81 L 228 81.5 L 224.5 82 L 224.5 81 Z " /><path fill="rgb(197,217,234)" stroke="rgb(197,217,234)" stroke-width="1" opacity="1" d="M 162.5 82 L 165 82.5 L 162.5 83 L 162.5 82 Z " /><path fill="rgb(197,217,234)" stroke="rgb(197,217,234)" stroke-width="1" opacity="1" d="M 234.5 82 L 237 82.5 L 234.5 83 L 234.5 82 Z " /><path fill="rgb(197,217,234)" stroke="rgb(197,217,234)" stroke-width="1" opacity="1" d="M 155.5 83 L 158 83.5 L 155.5 84 L 155.5 83 Z " /><path fill="rgb(197,217,234)" stroke="rgb(197,217,234)" stroke-width="1" opacity="1" d="M 241.5 83 L 244 83.5 L 241.5 84 L 241.5 83 Z " /><path fill="rgb(197,217,234)" stroke="rgb(197,217,234)" stroke-width="1" opacity="1" d="M 105.5 85 L 104.5 87 L 105.5 85 Z " /><path fill="rgb(197,217,234)" stroke="rgb(197,217,234)" stroke-width="1" opacity="1" d="M 296.5 87 L 300.5 92 L 296.5 87 Z " /><path fill="rgb(197,217,234)" stroke="rgb(197,217,234)" stroke-width="1" opacity="1" d="M 101.5 88 L 99.5 91 L 101.5 88 Z " /><path fill="rgb(197,217,234)" stroke="rgb(197,217,234)" stroke-width="1" opacity="1" d="M 185.5 90 L 214 90.5 L 185.5 91 L 185.5 90 Z " /><path fill="rgb(197,217,234)" stroke="rgb(197,217,234)" stroke-width="1" opacity="1" d="M 171.5 91 L 175 91.5 L 171.5 92 L 171.5 91 Z " /><path fill="rgb(197,217,234)" stroke="rgb(197,217,234)" stroke-width="1" opacity="1" d="M 224.5 91 L 228 91.5 L 224.5 92 L 224.5 91 Z " /><path fill="rgb(197,217,234)" stroke="rgb(197,217,234)" stroke-width="1" opacity="1" d="M 162.5 92 L 165 92.5 L 162.5 93 L 162.5 92 Z " /><path fill="rgb(197,217,234)" stroke="rgb(197,217,234)" stroke-width="1" opacity="1" d="M 234.5 92 L 237 92.5 L 234.5 93 L 234.5 92 Z " /><path fill="rgb(197,217,234)" stroke="rgb(197,217,234)" stroke-width="1" opacity="1" d="M 97.5 93 L 96.5 95 L 97.5 93 Z " /><path fill="rgb(197,217,234)" stroke="rgb(197,217,234)" stroke-width="1" opacity="1" d="M 155.5 93 L 158 93.5 L 155.5 94 L 155.5 93 Z " /><path fill="rgb(197,217,234)" stroke="rgb(197,217,234)" stroke-width="1" opacity="1" d="M 284.5 96 L 285.5 98 L 284.5 96 Z " /><path fill="rgb(197,217,234)" stroke="rgb(197,217,234)" stroke-width="1" opacity="1" d="M 196.5 104 L 203 104.5 L 196.5 105 L 196.5 104 Z " /><path fill="rgb(197,217,234)" stroke="rgb(197,217,234)" stroke-width="1" opacity="1" d="M 175.5 105 L 180 105.5 L 175.5 106 L 175.5 105 Z " /><path fill="rgb(197,217,234)" stroke="rgb(197,217,234)" stroke-width="1" opacity="1" d="M 219.5 105 L 224 105.5 L 219.5 106 L 219.5 105 Z " /><path fill="rgb(197,217,234)" stroke="rgb(197,217,234)" stroke-width="1" opacity="1" d="M 165.5 106 L 169 106.5 L 165.5 107 L 165.5 106 Z " /><path fill="rgb(197,217,234)" stroke="rgb(197,217,234)" stroke-width="1" opacity="1" d="M 231.5 106 L 234 106.5 L 231.5 107 L 231.5 106 Z " /><path fill="rgb(197,217,234)" stroke="rgb(197,217,234)" stroke-width="1" opacity="1" d="M 158.5 107 L 161 107.5 L 158.5 108 L 158.5 107 Z " /><path fill="rgb(197,217,234)" stroke="rgb(197,217,234)" stroke-width="1" opacity="1" d="M 300.5 110 L 298.5 113 L 300.5 110 Z " /><path fill="rgb(197,217,234)" stroke="rgb(197,217,234)" stroke-width="1" opacity="1" d="M 99.5 111 L 100.5 113 L 99.5 111 Z " /><path fill="rgb(197,217,234)" stroke="rgb(197,217,234)" stroke-width="1" opacity="1" d="M 135.5 112 L 134.5 114 L 135.5 112 Z " /><path fill="rgb(197,217,234)" stroke="rgb(197,217,234)" stroke-width="1" opacity="1" d="M 263.5 112 L 264.5 114 L 263.5 112 Z " /><path fill="rgb(197,217,234)" stroke="rgb(197,217,234)" stroke-width="1" opacity="1" d="M 98.5 116 L 97.5 118 L 98.5 116 Z " /><path fill="rgb(197,217,234)" stroke="rgb(197,217,234)" stroke-width="1" opacity="1" d="M 150.5 117 L 153 117.5 L 150.5 118 L 150.5 117 Z " /><path fill="rgb(197,217,234)" stroke="rgb(197,217,234)" stroke-width="1" opacity="1" d="M 156.5 118 L 159 118.5 L 156.5 119 L 156.5 118 Z " /><path fill="rgb(197,217,234)" stroke="rgb(197,217,234)" stroke-width="1" opacity="1" d="M 163.5 119 L 166 119.5 L 163.5 120 L 163.5 119 Z " /><path fill="rgb(197,217,234)" stroke="rgb(197,217,234)" stroke-width="1" opacity="1" d="M 233.5 119 L 236 119.5 L 233.5 120 L 233.5 119 Z " /><path fill="rgb(197,217,234)" stroke="rgb(197,217,234)" stroke-width="1" opacity="1" d="M 172.5 120 L 176 120.5 L 172.5 121 L 172.5 120 Z " /><path fill="rgb(197,217,234)" stroke="rgb(197,217,234)" stroke-width="1" opacity="1" d="M 223.5 120 L 228 120.5 L 223.5 121 L 223.5 120 Z " /><path fill="rgb(197,217,234)" stroke="rgb(197,217,234)" stroke-width="1" opacity="1" d="M 186.5 121 L 213 121.5 L 186.5 122 L 186.5 121 Z " /><path fill="rgb(197,217,234)" stroke="rgb(197,217,234)" stroke-width="1" opacity="1" d="M 284.5 121 L 287 122.5 L 285.5 122 L 284.5 121 Z " /><path fill="rgb(197,217,234)" stroke="rgb(197,217,234)" stroke-width="1" opacity="1" d="M 112.5 122 L 110.5 125 L 112.5 122 Z " /><path fill="rgb(197,217,234)" stroke="rgb(197,217,234)" stroke-width="1" opacity="1" d="M 289.5 125 L 287.5 128 L 289.5 125 Z " /><path fill="rgb(197,217,234)" stroke="rgb(197,217,234)" stroke-width="1" opacity="1" d="M 110.5 126 L 111.5 128 L 110.5 126 Z " /><path fill="rgb(197,217,234)" stroke="rgb(197,217,234)" stroke-width="1" opacity="1" d="M 153.5 132 L 156 132.5 L 153.5 133 L 153.5 132 Z " /><path fill="rgb(197,217,234)" stroke="rgb(197,217,234)" stroke-width="1" opacity="1" d="M 243.5 132 L 246 132.5 L 243.5 133 L 243.5 132 Z " /><path fill="rgb(197,217,234)" stroke="rgb(197,217,234)" stroke-width="1" opacity="1" d="M 301.5 133 L 299.5 136 L 301.5 133 Z " /><path fill="rgb(197,217,234)" stroke="rgb(197,217,234)" stroke-width="1" opacity="1" d="M 98.5 134 L 100.5 137 L 98.5 134 Z " /><path fill="rgb(197,217,234)" stroke="rgb(197,217,234)" stroke-width="1" opacity="1" d="M 168.5 134 L 172 134.5 L 168.5 135 L 168.5 134 Z " /><path fill="rgb(197,217,234)" stroke="rgb(197,217,234)" stroke-width="1" opacity="1" d="M 227.5 134 L 231 134.5 L 227.5 135 L 227.5 134 Z " /><path fill="rgb(197,217,234)" stroke="rgb(197,217,234)" stroke-width="1" opacity="1" d="M 180.5 135 L 186 135.5 L 180.5 136 L 180.5 135 Z " /><path fill="rgb(197,217,234)" stroke="rgb(197,217,234)" stroke-width="1" opacity="1" d="M 213.5 135 L 219 135.5 L 213.5 136 L 213.5 135 Z " /><path fill="rgb(197,217,234)" stroke="rgb(197,217,234)" stroke-width="1" opacity="1" d="M 100.5 138 L 98.5 141 L 100.5 138 Z " /><path fill="rgb(197,217,234)" stroke="rgb(197,217,234)" stroke-width="1" opacity="1" d="M 298.5 138 L 301.5 142 L 298.5 138 Z " /><path fill="rgb(197,217,234)" stroke="rgb(197,217,234)" stroke-width="1" opacity="1" d="M 148.5 141 L 151 141.5 L 148.5 142 L 148.5 141 Z " /><path fill="rgb(197,217,234)" stroke="rgb(197,217,234)" stroke-width="1" opacity="1" d="M 160.5 143 L 163 143.5 L 160.5 144 L 160.5 143 Z " /><path fill="rgb(197,217,234)" stroke="rgb(197,217,234)" stroke-width="1" opacity="1" d="M 236.5 143 L 239 143.5 L 236.5 144 L 236.5 143 Z " /><path fill="rgb(197,217,234)" stroke="rgb(197,217,234)" stroke-width="1" opacity="1" d="M 168.5 144 L 172 144.5 L 168.5 145 L 168.5 144 Z " /><path fill="rgb(197,217,234)" stroke="rgb(197,217,234)" stroke-width="1" opacity="1" d="M 227.5 144 L 231 144.5 L 227.5 145 L 227.5 144 Z " /><path fill="rgb(197,217,234)" stroke="rgb(197,217,234)" stroke-width="1" opacity="1" d="M 179.5 145 L 186 145.5 L 179.5 146 L 179.5 145 Z " /><path fill="rgb(197,217,234)" stroke="rgb(197,217,234)" stroke-width="1" opacity="1" d="M 213.5 145 L 220 145.5 L 213.5 146 L 213.5 145 Z " /><path fill="rgb(197,217,234)" stroke="rgb(197,217,234)" stroke-width="1" opacity="1" d="M 111.5 147 L 110.5 149 L 111.5 147 Z " /><path fill="rgb(197,217,234)" stroke="rgb(197,217,234)" stroke-width="1" opacity="1" d="M 287.5 147 L 289.5 150 L 287.5 147 Z " /><path fill="rgb(197,217,234)" stroke="rgb(197,217,234)" stroke-width="1" opacity="1" d="M 111.5 151 L 112.5 153 L 111.5 151 Z " /><path fill="rgb(197,217,234)" stroke="rgb(197,217,234)" stroke-width="1" opacity="1" d="M 286.5 152 L 285.5 154 L 286.5 152 Z " /><path fill="rgb(197,217,234)" stroke="rgb(197,217,234)" stroke-width="1" opacity="1" d="M 157.5 157 L 160 157.5 L 157.5 158 L 157.5 157 Z " /><path fill="rgb(197,217,234)" stroke="rgb(197,217,234)" stroke-width="1" opacity="1" d="M 239.5 157 L 242 157.5 L 239.5 158 L 239.5 157 Z " /><path fill="rgb(197,217,234)" stroke="rgb(197,217,234)" stroke-width="1" opacity="1" d="M 165.5 158 L 168 158.5 L 165.5 159 L 165.5 158 Z " /><path fill="rgb(197,217,234)" stroke="rgb(197,217,234)" stroke-width="1" opacity="1" d="M 231.5 158 L 234 158.5 L 231.5 159 L 231.5 158 Z " /><path fill="rgb(197,217,234)" stroke="rgb(197,217,234)" stroke-width="1" opacity="1" d="M 174.5 159 L 181 159.5 L 174.5 160 L 174.5 159 Z " /><path fill="rgb(197,217,234)" stroke="rgb(197,217,234)" stroke-width="1" opacity="1" d="M 219.5 159 L 225 159.5 L 219.5 160 L 219.5 159 Z " /><path fill="rgb(197,217,234)" stroke="rgb(197,217,234)" stroke-width="1" opacity="1" d="M 197.5 160 L 202 160.5 L 197.5 161 L 197.5 160 Z " /><path fill="rgb(197,217,234)" stroke="rgb(197,217,234)" stroke-width="1" opacity="1" d="M 298.5 162 L 300.5 165 L 298.5 162 Z " /><path fill="rgb(197,217,234)" stroke="rgb(197,217,234)" stroke-width="1" opacity="1" d="M 165.5 168 L 168 168.5 L 165.5 169 L 165.5 168 Z " /><path fill="rgb(197,217,234)" stroke="rgb(197,217,234)" stroke-width="1" opacity="1" d="M 231.5 168 L 234 168.5 L 231.5 169 L 231.5 168 Z " /><path fill="rgb(197,217,234)" stroke="rgb(197,217,234)" stroke-width="1" opacity="1" d="M 174.5 169 L 179 169.5 L 174.5 170 L 174.5 169 Z " /><path fill="rgb(197,217,234)" stroke="rgb(197,217,234)" stroke-width="1" opacity="1" d="M 220.5 169 L 225 169.5 L 220.5 170 L 220.5 169 Z " /><path fill="rgb(197,217,234)" stroke="rgb(197,217,234)" stroke-width="1" opacity="1" d="M 194.5 170 L 205 170.5 L 194.5 171 L 194.5 170 Z " /><path fill="rgb(197,217,234)" stroke="rgb(197,217,234)" stroke-width="1" opacity="1" d="M 289.5 174 L 288.5 176 L 289.5 174 Z " /><path fill="rgb(197,217,234)" stroke="rgb(197,217,234)" stroke-width="1" opacity="1" d="M 285.5 177 L 284.5 179 L 285.5 177 Z " /><path fill="rgb(197,217,234)" stroke="rgb(197,217,234)" stroke-width="1" opacity="1" d="M 96.5 180 L 97.5 182 L 96.5 180 Z " /><path fill="rgb(197,217,234)" stroke="rgb(197,217,234)" stroke-width="1" opacity="1" d="M 161.5 182 L 165 182.5 L 161.5 183 L 161.5 182 Z " /><path fill="rgb(197,217,234)" stroke="rgb(197,217,234)" stroke-width="1" opacity="1" d="M 234.5 182 L 238 182.5 L 234.5 183 L 234.5 182 Z " /><path fill="rgb(197,217,234)" stroke="rgb(197,217,234)" stroke-width="1" opacity="1" d="M 171.5 183 L 175 183.5 L 171.5 184 L 171.5 183 Z " /><path fill="rgb(197,217,234)" stroke="rgb(197,217,234)" stroke-width="1" opacity="1" d="M 224.5 183 L 228 183.5 L 224.5 184 L 224.5 183 Z " /><path fill="rgb(197,217,234)" stroke="rgb(197,217,234)" stroke-width="1" opacity="1" d="M 300.5 183 L 298.5 186 L 300.5 183 Z " /><path fill="rgb(197,217,234)" stroke="rgb(197,217,234)" stroke-width="1" opacity="1" d="M 99.5 184 L 100.5 186 L 99.5 184 Z " /><path fill="rgb(197,217,234)" stroke="rgb(197,217,234)" stroke-width="1" opacity="1" d="M 184.5 184 L 199 184.5 L 184.5 185 L 184.5 184 Z " /><path fill="rgb(197,217,234)" stroke="rgb(197,217,234)" stroke-width="1" opacity="1" d="M 200.5 184 L 215 184.5 L 200.5 185 L 200.5 184 Z " /><path fill="rgb(197,217,234)" stroke="rgb(197,217,234)" stroke-width="1" opacity="1" d="M 98.5 189 L 97.5 191 L 98.5 189 Z " /><path fill="rgb(197,217,234)" stroke="rgb(197,217,234)" stroke-width="1" opacity="1" d="M 155.5 191 L 158 191.5 L 155.5 192 L 155.5 191 Z " /><path fill="rgb(197,217,234)" stroke="rgb(197,217,234)" stroke-width="1" opacity="1" d="M 241.5 191 L 244 191.5 L 241.5 192 L 241.5 191 Z " /><path fill="rgb(197,217,234)" stroke="rgb(197,217,234)" stroke-width="1" opacity="1" d="M 162.5 192 L 165 192.5 L 162.5 193 L 162.5 192 Z " /><path fill="rgb(197,217,234)" stroke="rgb(197,217,234)" stroke-width="1" opacity="1" d="M 234.5 192 L 237 192.5 L 234.5 193 L 234.5 192 Z " /><path fill="rgb(197,217,234)" stroke="rgb(197,217,234)" stroke-width="1" opacity="1" d="M 170.5 193 L 175 193.5 L 170.5 194 L 170.5 193 Z " /><path fill="rgb(197,217,234)" stroke="rgb(197,217,234)" stroke-width="1" opacity="1" d="M 225.5 193 L 229 193.5 L 225.5 194 L 225.5 193 Z " /><path fill="rgb(197,217,234)" stroke="rgb(197,217,234)" stroke-width="1" opacity="1" d="M 183.5 194 L 195 194.5 L 183.5 195 L 183.5 194 Z " /><path fill="rgb(197,217,234)" stroke="rgb(197,217,234)" stroke-width="1" opacity="1" d="M 204.5 194 L 216 194.5 L 204.5 195 L 204.5 194 Z " /><path fill="rgb(197,217,234)" stroke="rgb(197,217,234)" stroke-width="1" opacity="1" d="M 112.5 195 L 110 198.5 L 111.5 201 Q 106 198 112.5 195 Z " /><path fill="rgb(197,217,234)" stroke="rgb(197,217,234)" stroke-width="1" opacity="1" d="M 286.5 195 L 287.5 197 L 286.5 195 Z " /><path fill="rgb(197,217,234)" stroke="rgb(197,217,234)" stroke-width="1" opacity="1" d="M 289.5 198 L 286.5 202 L 289.5 198 Z " /><path fill="rgb(197,217,234)" stroke="rgb(197,217,234)" stroke-width="1" opacity="1" d="M 152.5 205 L 155 205.5 L 152.5 206 L 152.5 205 Z " /><path fill="rgb(197,217,234)" stroke="rgb(197,217,234)" stroke-width="1" opacity="1" d="M 244.5 205 L 247 205.5 L 244.5 206 L 244.5 205 Z " /><path fill="rgb(197,217,234)" stroke="rgb(197,217,234)" stroke-width="1" opacity="1" d="M 97.5 206 L 100.5 210 L 97.5 206 Z " /><path fill="rgb(197,217,234)" stroke="rgb(197,217,234)" stroke-width="1" opacity="1" d="M 159.5 206 L 162 206.5 L 159.5 207 L 159.5 206 Z " /><path fill="rgb(197,217,234)" stroke="rgb(197,217,234)" stroke-width="1" opacity="1" d="M 301.5 206 L 300.5 208 L 301.5 206 Z " /><path fill="rgb(197,217,234)" stroke="rgb(197,217,234)" stroke-width="1" opacity="1" d="M 167.5 207 L 171 207.5 L 167.5 208 L 167.5 207 Z " /><path fill="rgb(197,217,234)" stroke="rgb(197,217,234)" stroke-width="1" opacity="1" d="M 228.5 207 L 232 207.5 L 228.5 208 L 228.5 207 Z " /><path fill="rgb(197,217,234)" stroke="rgb(197,217,234)" stroke-width="1" opacity="1" d="M 179.5 208 L 185 208.5 L 179.5 209 L 179.5 208 Z " /><path fill="rgb(197,217,234)" stroke="rgb(197,217,234)" stroke-width="1" opacity="1" d="M 214.5 208 L 221 208.5 L 214.5 209 L 214.5 208 Z " /><path fill="rgb(197,217,234)" stroke="rgb(197,217,234)" stroke-width="1" opacity="1" d="M 100.5 211 L 98.5 214 L 100.5 211 Z " /><path fill="rgb(197,217,234)" stroke="rgb(197,217,234)" stroke-width="1" opacity="1" d="M 298.5 211 L 300.5 214 L 298.5 211 Z " /><path fill="rgb(197,217,234)" stroke="rgb(197,217,234)" stroke-width="1" opacity="1" d="M 153.5 215 L 156 215.5 L 153.5 216 L 153.5 215 Z " /><path fill="rgb(197,217,234)" stroke="rgb(197,217,234)" stroke-width="1" opacity="1" d="M 159.5 216 L 162 216.5 L 159.5 217 L 159.5 216 Z " /><path fill="rgb(197,217,234)" stroke="rgb(197,217,234)" stroke-width="1" opacity="1" d="M 237.5 216 L 240 216.5 L 237.5 217 L 237.5 216 Z " /><path fill="rgb(197,217,234)" stroke="rgb(197,217,234)" stroke-width="1" opacity="1" d="M 167.5 217 L 171 217.5 L 167.5 218 L 167.5 217 Z " /><path fill="rgb(197,217,234)" stroke="rgb(197,217,234)" stroke-width="1" opacity="1" d="M 228.5 217 L 232 217.5 L 228.5 218 L 228.5 217 Z " /><path fill="rgb(197,217,234)" stroke="rgb(197,217,234)" stroke-width="1" opacity="1" d="M 178.5 218 L 184 218.5 L 178.5 219 L 178.5 218 Z " /><path fill="rgb(197,217,234)" stroke="rgb(197,217,234)" stroke-width="1" opacity="1" d="M 215.5 218 L 221 218.5 L 215.5 219 L 215.5 218 Z " /><path fill="rgb(197,217,234)" stroke="rgb(197,217,234)" stroke-width="1" opacity="1" d="M 287.5 220 L 289.5 223 L 287.5 220 Z " /><path fill="rgb(197,217,234)" stroke="rgb(197,217,234)" stroke-width="1" opacity="1" d="M 112.5 225 L 113.5 227 L 112.5 225 Z " /><path fill="rgb(197,217,234)" stroke="rgb(197,217,234)" stroke-width="1" opacity="1" d="M 286.5 225 L 285.5 227 L 286.5 225 Z " /><path fill="rgb(197,217,234)" stroke="rgb(197,217,234)" stroke-width="1" opacity="1" d="M 150.5 229 L 153 229.5 L 150.5 230 L 150.5 229 Z " /><path fill="rgb(197,217,234)" stroke="rgb(197,217,234)" stroke-width="1" opacity="1" d="M 302.5 229 L 301.5 231 L 302.5 229 Z " /><path fill="rgb(197,217,234)" stroke="rgb(197,217,234)" stroke-width="1" opacity="1" d="M 240.5 230 L 243 230.5 L 240.5 231 L 240.5 230 Z " /><path fill="rgb(197,217,234)" stroke="rgb(197,217,234)" stroke-width="1" opacity="1" d="M 164.5 231 L 167 231.5 L 164.5 232 L 164.5 231 Z " /><path fill="rgb(197,217,234)" stroke="rgb(197,217,234)" stroke-width="1" opacity="1" d="M 232.5 231 L 235 231.5 L 232.5 232 L 232.5 231 Z " /><path fill="rgb(197,217,234)" stroke="rgb(197,217,234)" stroke-width="1" opacity="1" d="M 173.5 232 L 179 232.5 L 173.5 233 L 173.5 232 Z " /><path fill="rgb(197,217,234)" stroke="rgb(197,217,234)" stroke-width="1" opacity="1" d="M 220.5 232 L 226 232.5 L 220.5 233 L 220.5 232 Z " /><path fill="rgb(197,217,234)" stroke="rgb(197,217,234)" stroke-width="1" opacity="1" d="M 192.5 233 L 207 233.5 L 192.5 234 L 192.5 233 Z " /><path fill="rgb(197,217,234)" stroke="rgb(197,217,234)" stroke-width="1" opacity="1" d="M 299.5 233 L 299 234.5 L 300 236.5 L 298 235.5 L 299.5 233 Z " /><path fill="rgb(197,217,234)" stroke="rgb(197,217,234)" stroke-width="1" opacity="1" d="M 301.5 239 L 302.5 241 L 301.5 239 Z " /><path fill="rgb(197,217,234)" stroke="rgb(197,217,234)" stroke-width="1" opacity="1" d="M 157.5 240 L 160 240.5 L 157.5 241 L 157.5 240 Z " /><path fill="rgb(197,217,234)" stroke="rgb(197,217,234)" stroke-width="1" opacity="1" d="M 164.5 241 L 167 241.5 L 164.5 242 L 164.5 241 Z " /><path fill="rgb(197,217,234)" stroke="rgb(197,217,234)" stroke-width="1" opacity="1" d="M 232.5 241 L 235 241.5 L 232.5 242 L 232.5 241 Z " /><path fill="rgb(197,217,234)" stroke="rgb(197,217,234)" stroke-width="1" opacity="1" d="M 173.5 242 L 178 242.5 L 173.5 243 L 173.5 242 Z " /><path fill="rgb(197,217,234)" stroke="rgb(197,217,234)" stroke-width="1" opacity="1" d="M 221.5 242 L 226 242.5 L 221.5 243 L 221.5 242 Z " /><path fill="rgb(197,217,234)" stroke="rgb(197,217,234)" stroke-width="1" opacity="1" d="M 113.5 243 L 112.5 245 L 113.5 243 Z " /><path fill="rgb(197,217,234)" stroke="rgb(197,217,234)" stroke-width="1" opacity="1" d="M 189.5 243 L 210 243.5 L 189.5 244 L 189.5 243 Z " /><path fill="rgb(197,217,234)" stroke="rgb(197,217,234)" stroke-width="1" opacity="1" d="M 289.5 247 L 287.5 250 L 289.5 247 Z " /><path fill="rgb(197,217,234)" stroke="rgb(197,217,234)" stroke-width="1" opacity="1" d="M 113.5 250 L 114.5 252 L 113.5 250 Z " /><path fill="rgb(197,217,234)" stroke="rgb(197,217,234)" stroke-width="1" opacity="1" d="M 154.5 254 L 157 254.5 L 154.5 255 L 154.5 254 Z " /><path fill="rgb(197,217,234)" stroke="rgb(197,217,234)" stroke-width="1" opacity="1" d="M 242.5 254 L 245 254.5 L 242.5 255 L 242.5 254 Z " /><path fill="rgb(197,217,234)" stroke="rgb(197,217,234)" stroke-width="1" opacity="1" d="M 161.5 255 L 164 255.5 L 161.5 256 L 161.5 255 Z " /><path fill="rgb(197,217,234)" stroke="rgb(197,217,234)" stroke-width="1" opacity="1" d="M 235.5 255 L 238 255.5 L 235.5 256 L 235.5 255 Z " /><path fill="rgb(197,217,234)" stroke="rgb(197,217,234)" stroke-width="1" opacity="1" d="M 98.5 256 L 102.5 261 L 98.5 256 Z " /><path fill="rgb(197,217,234)" stroke="rgb(197,217,234)" stroke-width="1" opacity="1" d="M 170.5 256 L 173 256.5 L 170.5 257 L 170.5 256 Z " /><path fill="rgb(197,217,234)" stroke="rgb(197,217,234)" stroke-width="1" opacity="1" d="M 226.5 256 L 229 256.5 L 226.5 257 L 226.5 256 Z " /><path fill="rgb(197,217,234)" stroke="rgb(197,217,234)" stroke-width="1" opacity="1" d="M 300.5 256 L 296.5 261 L 300.5 256 Z " /><path fill="rgb(197,217,234)" stroke="rgb(197,217,234)" stroke-width="1" opacity="1" d="M 183.5 257 L 193 257.5 L 183.5 258 L 183.5 257 Z " /><path fill="rgb(197,217,234)" stroke="rgb(197,217,234)" stroke-width="1" opacity="1" d="M 206.5 257 L 216 257.5 L 206.5 258 L 206.5 257 Z " /><path fill="rgb(197,217,234)" stroke="rgb(197,217,234)" stroke-width="1" opacity="1" d="M 293.5 262 L 292.5 264 L 293.5 262 Z " /><path fill="rgb(197,217,234)" stroke="rgb(197,217,234)" stroke-width="1" opacity="1" d="M 161.5 265 L 164 265.5 L 161.5 266 L 161.5 265 Z " /><path fill="rgb(197,217,234)" stroke="rgb(197,217,234)" stroke-width="1" opacity="1" d="M 235.5 265 L 238 265.5 L 235.5 266 L 235.5 265 Z " /><path fill="rgb(197,217,234)" stroke="rgb(197,217,234)" stroke-width="1" opacity="1" d="M 169.5 266 L 173 266.5 L 169.5 267 L 169.5 266 Z " /><path fill="rgb(197,217,234)" stroke="rgb(197,217,234)" stroke-width="1" opacity="1" d="M 226.5 266 L 230 266.5 L 226.5 267 L 226.5 266 Z " /><path fill="rgb(197,217,234)" stroke="rgb(197,217,234)" stroke-width="1" opacity="1" d="M 181.5 267 L 190 267.5 L 181.5 268 L 181.5 267 Z " /><path fill="rgb(197,217,234)" stroke="rgb(197,217,234)" stroke-width="1" opacity="1" d="M 210.5 267 L 218 267.5 L 210.5 268 L 210.5 267 Z " /><path fill="rgb(197,217,234)" stroke="rgb(197,217,234)" stroke-width="1" opacity="1" d="M 245.5 278 L 248 278.5 L 245.5 279 L 245.5 278 Z " /><path fill="rgb(197,217,234)" stroke="rgb(197,217,234)" stroke-width="1" opacity="1" d="M 158.5 279 L 161 279.5 L 158.5 280 L 158.5 279 Z " /><path fill="rgb(197,217,234)" stroke="rgb(197,217,234)" stroke-width="1" opacity="1" d="M 238.5 279 L 241 279.5 L 238.5 280 L 238.5 279 Z " /><path fill="rgb(197,217,234)" stroke="rgb(197,217,234)" stroke-width="1" opacity="1" d="M 166.5 280 L 169 280.5 L 166.5 281 L 166.5 280 Z " /><path fill="rgb(197,217,234)" stroke="rgb(197,217,234)" stroke-width="1" opacity="1" d="M 230.5 280 L 233 280.5 L 230.5 281 L 230.5 280 Z " /><path fill="rgb(197,217,234)" stroke="rgb(197,217,234)" stroke-width="1" opacity="1" d="M 177.5 281 L 183 281.5 L 177.5 282 L 177.5 281 Z " /><path fill="rgb(197,217,234)" stroke="rgb(197,217,234)" stroke-width="1" opacity="1" d="M 216.5 281 L 223 281.5 L 216.5 282 L 216.5 281 Z " /><path fill="rgb(255,255,255)" stroke="rgb(255,255,255)" stroke-width="1" opacity="1" d="M 0 0 L 408 0 L 408 364 L 0 364 L 0 0 Z M 179 66 L 178 67 L 168 67 L 167 68 L 148 70 L 131 74 L 115 80 L 102 88 L 95 98 L 95 105 L 101 114 L 95 122 L 95 130 L 101 138 L 95 146 L 95 154 L 101 162 L 95 171 L 96 181 L 101 187 L 95 195 L 95 203 L 101 211 L 95 220 L 95 227 L 101 235 L 95 244 Q 94 253 98 257 L 109 265 L 119 270 L 134 275 L 159 280 L 177 281 L 178 282 L 223 282 L 224 281 L 248 279 L 266 275 L 281 270 L 297 261 L 304 252 Q 306 239 299 236 L 304 227 L 304 219 L 298 211 L 304 203 L 304 195 L 298 187 L 304 179 L 304 170 L 298 162 L 304 154 L 304 146 L 298 138 L 304 130 L 304 122 L 298 114 L 304 106 Q 306 95 301 92 Q 294 83 283 79 L 257 71 L 240 68 L 233 68 L 232 67 L 222 67 L 221 66 L 179 66 Z " /><path fill="rgb(255,255,255)" stroke="rgb(255,255,255)" stroke-width="1" opacity="1" d="M 198.5 80 L 202.5 81 L 233.5 82 L 256.5 86 L 275.5 92 L 289 100.5 L 286.5 104 L 284.5 105 L 270.5 99 L 243.5 93 L 228.5 92 L 227.5 91 L 214.5 91 L 213.5 90 L 185.5 90 L 184.5 91 L 162.5 92 L 139.5 96 L 122.5 101 L 114.5 105 L 110 101.5 L 112.5 98 L 123.5 92 L 142.5 86 L 165.5 82 L 197.5 81 L 198.5 80 Z " /><path fill="rgb(255,255,255)" stroke="rgb(255,255,255)" stroke-width="1" opacity="1" d="M 180.5 105 L 218.5 105 L 219.5 106 L 230.5 106 L 231.5 107 L 250.5 109 L 262.5 112 L 264 113.5 L 246.5 118 L 233.5 119 L 232.5 120 L 223.5 120 L 222.5 121 L 176.5 121 L 175.5 120 L 166.5 120 L 165.5 119 L 147.5 117 L 135 113.5 L 136.5 112 L 154.5 108 L 168.5 107 L 169.5 106 L 179.5 106 L 180.5 105 Z " /><path fill="rgb(255,255,255)" stroke="rgb(255,255,255)" stroke-width="1" opacity="1" d="M 113.5 122 L 116.5 122 L 134.5 129 L 160.5 134 L 179.5 135 L 180.5 136 L 218.5 136 L 219.5 135 L 230.5 135 L 231.5 134 L 238.5 134 L 260.5 130 L 285.5 122 L 289 124.5 L 285.5 129 L 273.5 135 L 248.5 142 L 227.5 144 L 226.5 145 L 213.5 145 L 212.5 146 L 186.5 146 L 185.5 145 L 163.5 144 L 137.5 139 L 120.5 133 L 110 125.5 L 113.5 122 Z " /><path fill="rgb(255,255,255)" stroke="rgb(255,255,255)" stroke-width="1" opacity="1" d="M 113.5 146 L 129.5 152 L 151.5 157 L 173.5 159 L 174.5 160 L 196.5 160 L 201.5 161 L 202.5 160 L 224.5 160 L 225.5 159 L 247.5 157 L 269.5 152 L 285.5 146 L 289 150.5 L 274.5 159 L 250.5 166 L 231.5 168 L 230.5 169 L 220.5 169 L 219.5 170 L 179.5 170 L 178.5 169 L 160.5 168 L 136.5 163 Q 120.9 158.9 110 151 L 113.5 146 Z " /><path fill="rgb(255,255,255)" stroke="rgb(255,255,255)" stroke-width="1" opacity="1" d="M 114.5 170 L 135.5 178 L 161.5 183 L 183.5 184 L 184.5 185 L 214.5 185 L 215.5 184 L 237.5 183 L 259.5 179 L 276.5 174 L 284.5 170 L 289 173.5 L 286.5 177 L 270.5 185 L 246.5 191 L 225.5 193 L 224.5 194 L 195.5 195 L 194.5 194 L 165.5 193 L 142.5 189 L 123.5 183 L 110 174.5 L 112.5 171 L 114.5 170 Z " /><path fill="rgb(255,255,255)" stroke="rgb(255,255,255)" stroke-width="1" opacity="1" d="M 113.5 195 L 130.5 201 L 159.5 207 L 178.5 208 L 179.5 209 L 220.5 209 L 221.5 208 L 231.5 208 L 232.5 207 L 239.5 207 L 256.5 204 L 285.5 195 L 289 197 L 284.5 203 L 265.5 211 L 243.5 216 L 228.5 217 L 227.5 218 L 215.5 218 L 214.5 219 L 184.5 219 L 183.5 218 L 162.5 217 L 133.5 211 L 116.5 204 L 110 198.5 L 113.5 195 Z " /><path fill="rgb(255,255,255)" stroke="rgb(255,255,255)" stroke-width="1" opacity="1" d="M 114.5 219 L 129.5 225 L 150.5 230 L 172.5 232 L 173.5 233 L 206.5 234 L 207.5 233 L 225.5 233 L 226.5 232 L 248.5 230 L 266.5 226 L 285.5 219 L 289 223.5 Q 282.3 229.8 272.5 233 L 245.5 240 L 232.5 241 L 231.5 242 L 221.5 242 L 220.5 243 L 178.5 243 L 177.5 242 L 167.5 242 L 166.5 241 L 153.5 240 L 139.5 237 L 119.5 230 L 110 223.5 L 112.5 220 L 114.5 219 Z " /><path fill="rgb(255,255,255)" stroke="rgb(255,255,255)" stroke-width="1" opacity="1" d="M 114.5 243 L 131.5 250 L 154.5 255 L 169.5 256 L 170.5 257 L 182.5 257 L 183.5 258 L 215.5 258 L 216.5 257 L 228.5 257 L 229.5 256 L 237.5 256 L 238.5 255 L 255.5 253 L 279.5 246 L 284.5 243 L 289 246.5 L 285.5 251 L 273.5 257 L 247.5 264 L 226.5 266 L 225.5 267 L 190.5 268 L 189.5 267 L 164.5 266 L 134.5 260 L 115.5 252 L 110 247.5 L 111.5 245 L 114.5 243 Z " /><path fill="rgb(58,125,185)" stroke="rgb(58,125,185)" stroke-width="1" opacity="1" d="M 185.5 66 L 214 66.5 L 185.5 67 L 185.5 66 Z " /><path fill="rgb(58,125,185)" stroke="rgb(58,125,185)" stroke-width="1" opacity="1" d="M 171.5 67 L 175 67.5 L 171.5 68 L 171.5 67 Z " /><path fill="rgb(58,125,185)" stroke="rgb(58,125,185)" stroke-width="1" opacity="1" d="M 224.5 67 L 228 67.5 L 224.5 68 L 224.5 67 Z " /><path fill="rgb(58,125,185)" stroke="rgb(58,125,185)" stroke-width="1" opacity="1" d="M 162.5 68 L 165 68.5 L 162.5 69 L 162.5 68 Z " /><path fill="rgb(58,125,185)" stroke="rgb(58,125,185)" stroke-width="1" opacity="1" d="M 234.5 68 L 237 68.5 L 234.5 69 L 234.5 68 Z " /><path fill="rgb(58,125,185)" stroke="rgb(58,125,185)" stroke-width="1" opacity="1" d="M 155.5 69 L 158 69.5 L 155.5 70 L 155.5 69 Z " /><path fill="rgb(58,125,185)" stroke="rgb(58,125,185)" stroke-width="1" opacity="1" d="M 178.5 80 L 184 80.5 L 178.5 81 L 178.5 80 Z " /><path fill="rgb(58,125,185)" stroke="rgb(58,125,185)" stroke-width="1" opacity="1" d="M 215.5 80 L 221 80.5 L 215.5 81 L 215.5 80 Z " /><path fill="rgb(58,125,185)" stroke="rgb(58,125,185)" stroke-width="1" opacity="1" d="M 167.5 81 L 171 81.5 L 167.5 82 L 167.5 81 Z " /><path fill="rgb(58,125,185)" stroke="rgb(58,125,185)" stroke-width="1" opacity="1" d="M 228.5 81 L 232 81.5 L 228.5 82 L 228.5 81 Z " /><path fill="rgb(58,125,185)" stroke="rgb(58,125,185)" stroke-width="1" opacity="1" d="M 237.5 82 L 240 82.5 L 237.5 83 L 237.5 82 Z " /><path fill="rgb(58,125,185)" stroke="rgb(58,125,185)" stroke-width="1" opacity="1" d="M 107.5 84 L 106.5 86 L 107.5 84 Z " /><path fill="rgb(58,125,185)" stroke="rgb(58,125,185)" stroke-width="1" opacity="1" d="M 294.5 86 L 295.5 88 L 294.5 86 Z " /><path fill="rgb(58,125,185)" stroke="rgb(58,125,185)" stroke-width="1" opacity="1" d="M 103.5 87 L 102.5 89 L 103.5 87 Z " /><path fill="rgb(58,125,185)" stroke="rgb(58,125,185)" stroke-width="1" opacity="1" d="M 99.5 91 L 98.5 93 L 99.5 91 Z " /><path fill="rgb(58,125,185)" stroke="rgb(58,125,185)" stroke-width="1" opacity="1" d="M 175.5 91 L 181 91.5 L 175.5 92 L 175.5 91 Z " /><path fill="rgb(58,125,185)" stroke="rgb(58,125,185)" stroke-width="1" opacity="1" d="M 218.5 91 L 224 91.5 L 218.5 92 L 218.5 91 Z " /><path fill="rgb(58,125,185)" stroke="rgb(58,125,185)" stroke-width="1" opacity="1" d="M 165.5 92 L 169 92.5 L 165.5 93 L 165.5 92 Z " /><path fill="rgb(58,125,185)" stroke="rgb(58,125,185)" stroke-width="1" opacity="1" d="M 230.5 92 L 234 92.5 L 230.5 93 L 230.5 92 Z " /><path fill="rgb(58,125,185)" stroke="rgb(58,125,185)" stroke-width="1" opacity="1" d="M 300.5 92 L 301.5 94 L 300.5 92 Z " /><path fill="rgb(58,125,185)" stroke="rgb(58,125,185)" stroke-width="1" opacity="1" d="M 239.5 93 L 242 93.5 L 239.5 94 L 239.5 93 Z " /><path fill="rgb(58,125,185)" stroke="rgb(58,125,185)" stroke-width="1" opacity="1" d="M 151.5 94 L 154 94.5 L 151.5 95 L 151.5 94 Z " /><path fill="rgb(58,125,185)" stroke="rgb(58,125,185)" stroke-width="1" opacity="1" d="M 112.5 97 L 110 100.5 L 112 103.5 L 109 101.5 L 112.5 97 Z " /><path fill="rgb(58,125,185)" stroke="rgb(58,125,185)" stroke-width="1" opacity="1" d="M 286.5 97 L 287.5 99 L 286.5 97 Z " /><path fill="rgb(58,125,185)" stroke="rgb(58,125,185)" stroke-width="1" opacity="1" d="M 95.5 98 L 96 103.5 L 95 103.5 L 95.5 98 Z " /><path fill="rgb(58,125,185)" stroke="rgb(58,125,185)" stroke-width="1" opacity="1" d="M 289.5 100 L 290 101.5 L 286 104.5 L 289.5 100 Z " /><path fill="rgb(58,125,185)" stroke="rgb(58,125,185)" stroke-width="1" opacity="1" d="M 184.5 104 L 196 104.5 L 184.5 105 L 184.5 104 Z " /><path fill="rgb(58,125,185)" stroke="rgb(58,125,185)" stroke-width="1" opacity="1" d="M 203.5 104 L 216 104.5 L 203.5 105 L 203.5 104 Z " /><path fill="rgb(58,125,185)" stroke="rgb(58,125,185)" stroke-width="1" opacity="1" d="M 171.5 105 L 175 105.5 L 171.5 106 L 171.5 105 Z " /><path fill="rgb(58,125,185)" stroke="rgb(58,125,185)" stroke-width="1" opacity="1" d="M 224.5 105 L 228 105.5 L 224.5 106 L 224.5 105 Z " /><path fill="rgb(58,125,185)" stroke="rgb(58,125,185)" stroke-width="1" opacity="1" d="M 162.5 106 L 165 106.5 L 162.5 107 L 162.5 106 Z " /><path fill="rgb(58,125,185)" stroke="rgb(58,125,185)" stroke-width="1" opacity="1" d="M 234.5 106 L 237 106.5 L 234.5 107 L 234.5 106 Z " /><path fill="rgb(58,125,185)" stroke="rgb(58,125,185)" stroke-width="1" opacity="1" d="M 155.5 107 L 158 107.5 L 155.5 108 L 155.5 107 Z " /><path fill="rgb(58,125,185)" stroke="rgb(58,125,185)" stroke-width="1" opacity="1" d="M 241.5 107 L 244 107.5 L 241.5 108 L 241.5 107 Z " /><path fill="rgb(58,125,185)" stroke="rgb(58,125,185)" stroke-width="1" opacity="1" d="M 301.5 108 L 300.5 110 L 301.5 108 Z " /><path fill="rgb(58,125,185)" stroke="rgb(58,125,185)" stroke-width="1" opacity="1" d="M 98.5 109 L 99.5 111 L 98.5 109 Z " /><path fill="rgb(58,125,185)" stroke="rgb(58,125,185)" stroke-width="1" opacity="1" d="M 101.5 112 L 102 113.5 L 99 115.5 L 101.5 112 Z " /><path fill="rgb(58,125,185)" stroke="rgb(58,125,185)" stroke-width="1" opacity="1" d="M 133 112 L 135 112.5 L 133 113.5 L 133 112 Z " /><path fill="rgb(58,125,185)" stroke="rgb(58,125,185)" stroke-width="1" opacity="1" d="M 264.5 112 L 267 113.5 L 265.5 114 L 264.5 112 Z " /><path fill="rgb(58,125,185)" stroke="rgb(58,125,185)" stroke-width="1" opacity="1" d="M 297.5 113 L 300.5 117 L 297.5 113 Z " /><path fill="rgb(58,125,185)" stroke="rgb(58,125,185)" stroke-width="1" opacity="1" d="M 160.5 119 L 163 119.5 L 160.5 120 L 160.5 119 Z " /><path fill="rgb(58,125,185)" stroke="rgb(58,125,185)" stroke-width="1" opacity="1" d="M 236.5 119 L 239 119.5 L 236.5 120 L 236.5 119 Z " /><path fill="rgb(58,125,185)" stroke="rgb(58,125,185)" stroke-width="1" opacity="1" d="M 168.5 120 L 172 120.5 L 168.5 121 L 168.5 120 Z " /><path fill="rgb(58,125,185)" stroke="rgb(58,125,185)" stroke-width="1" opacity="1" d="M 228.5 120 L 231 120.5 L 228.5 121 L 228.5 120 Z " /><path fill="rgb(58,125,185)" stroke="rgb(58,125,185)" stroke-width="1" opacity="1" d="M 179.5 121 L 186 121.5 L 179.5 122 L 179.5 121 Z " /><path fill="rgb(58,125,185)" stroke="rgb(58,125,185)" stroke-width="1" opacity="1" d="M 213.5 121 L 220 121.5 L 213.5 122 L 213.5 121 Z " /><path fill="rgb(58,125,185)" stroke="rgb(58,125,185)" stroke-width="1" opacity="1" d="M 95.5 122 L 96 124.5 L 95 124.5 L 95.5 122 Z " /><path fill="rgb(58,125,185)" stroke="rgb(58,125,185)" stroke-width="1" opacity="1" d="M 287.5 122 L 289.5 125 L 287.5 122 Z " /><path fill="rgb(58,125,185)" stroke="rgb(58,125,185)" stroke-width="1" opacity="1" d="M 112.5 128 L 113.5 130 L 112.5 128 Z " /><path fill="rgb(58,125,185)" stroke="rgb(58,125,185)" stroke-width="1" opacity="1" d="M 286.5 128 L 285.5 130 L 286.5 128 Z " /><path fill="rgb(58,125,185)" stroke="rgb(58,125,185)" stroke-width="1" opacity="1" d="M 247.5 131 L 250 131.5 L 247.5 132 L 247.5 131 Z " /><path fill="rgb(58,125,185)" stroke="rgb(58,125,185)" stroke-width="1" opacity="1" d="M 162.5 133 L 166 133.5 L 162.5 134 L 162.5 133 Z " /><path fill="rgb(58,125,185)" stroke="rgb(58,125,185)" stroke-width="1" opacity="1" d="M 233.5 133 L 237 133.5 L 233.5 134 L 233.5 133 Z " /><path fill="rgb(58,125,185)" stroke="rgb(58,125,185)" stroke-width="1" opacity="1" d="M 172.5 134 L 177 134.5 L 172.5 135 L 172.5 134 Z " /><path fill="rgb(58,125,185)" stroke="rgb(58,125,185)" stroke-width="1" opacity="1" d="M 222.5 134 L 227 134.5 L 222.5 135 L 222.5 134 Z " /><path fill="rgb(58,125,185)" stroke="rgb(58,125,185)" stroke-width="1" opacity="1" d="M 186.5 135 L 213 135.5 L 186.5 136 L 186.5 135 Z " /><path fill="rgb(58,125,185)" stroke="rgb(58,125,185)" stroke-width="1" opacity="1" d="M 298.5 136 L 297.5 138 L 298.5 136 Z " /><path fill="rgb(58,125,185)" stroke="rgb(58,125,185)" stroke-width="1" opacity="1" d="M 239.5 143 L 242 143.5 L 239.5 144 L 239.5 143 Z " /><path fill="rgb(58,125,185)" stroke="rgb(58,125,185)" stroke-width="1" opacity="1" d="M 165.5 144 L 168 144.5 L 165.5 145 L 165.5 144 Z " /><path fill="rgb(58,125,185)" stroke="rgb(58,125,185)" stroke-width="1" opacity="1" d="M 231.5 144 L 235 144.5 L 231.5 145 L 231.5 144 Z " /><path fill="rgb(58,125,185)" stroke="rgb(58,125,185)" stroke-width="1" opacity="1" d="M 174.5 145 L 179 145.5 L 174.5 146 L 174.5 145 Z " /><path fill="rgb(58,125,185)" stroke="rgb(58,125,185)" stroke-width="1" opacity="1" d="M 220.5 145 L 225 145.5 L 220.5 146 L 220.5 145 Z " /><path fill="rgb(58,125,185)" stroke="rgb(58,125,185)" stroke-width="1" opacity="1" d="M 284.5 145 L 287 146.5 L 285.5 146 L 284.5 145 Z " /><path fill="rgb(58,125,185)" stroke="rgb(58,125,185)" stroke-width="1" opacity="1" d="M 192.5 146 L 207 146.5 L 192.5 147 L 192.5 146 Z " /><path fill="rgb(58,125,185)" stroke="rgb(58,125,185)" stroke-width="1" opacity="1" d="M 95.5 147 L 96 152.5 L 95 152.5 L 95.5 147 Z " /><path fill="rgb(58,125,185)" stroke="rgb(58,125,185)" stroke-width="1" opacity="1" d="M 109.5 149 L 111 151.5 L 109 150.5 L 109.5 149 Z " /><path fill="rgb(58,125,185)" stroke="rgb(58,125,185)" stroke-width="1" opacity="1" d="M 289.5 150 L 287.5 153 L 289.5 150 Z " /><path fill="rgb(58,125,185)" stroke="rgb(58,125,185)" stroke-width="1" opacity="1" d="M 113.5 153 L 114.5 155 L 113.5 153 Z " /><path fill="rgb(58,125,185)" stroke="rgb(58,125,185)" stroke-width="1" opacity="1" d="M 153.5 156 L 156 156.5 L 153.5 157 L 153.5 156 Z " /><path fill="rgb(58,125,185)" stroke="rgb(58,125,185)" stroke-width="1" opacity="1" d="M 243.5 156 L 246 156.5 L 243.5 157 L 243.5 156 Z " /><path fill="rgb(58,125,185)" stroke="rgb(58,125,185)" stroke-width="1" opacity="1" d="M 160.5 157 L 163 157.5 L 160.5 158 L 160.5 157 Z " /><path fill="rgb(58,125,185)" stroke="rgb(58,125,185)" stroke-width="1" opacity="1" d="M 98.5 158 L 102 162.5 L 98 165.5 L 101 161.5 L 98.5 158 Z " /><path fill="rgb(58,125,185)" stroke="rgb(58,125,185)" stroke-width="1" opacity="1" d="M 168.5 158 L 172 158.5 L 168.5 159 L 168.5 158 Z " /><path fill="rgb(58,125,185)" stroke="rgb(58,125,185)" stroke-width="1" opacity="1" d="M 227.5 158 L 231 158.5 L 227.5 159 L 227.5 158 Z " /><path fill="rgb(58,125,185)" stroke="rgb(58,125,185)" stroke-width="1" opacity="1" d="M 300.5 158 L 297.5 162 L 300.5 158 Z " /><path fill="rgb(58,125,185)" stroke="rgb(58,125,185)" stroke-width="1" opacity="1" d="M 181.5 159 L 187 159.5 L 181.5 160 L 181.5 159 Z " /><path fill="rgb(58,125,185)" stroke="rgb(58,125,185)" stroke-width="1" opacity="1" d="M 212.5 159 L 219 159.5 L 212.5 160 L 212.5 159 Z " /><path fill="rgb(58,125,185)" stroke="rgb(58,125,185)" stroke-width="1" opacity="1" d="M 300.5 165 L 301.5 167 L 300.5 165 Z " /><path fill="rgb(58,125,185)" stroke="rgb(58,125,185)" stroke-width="1" opacity="1" d="M 155.5 167 L 158 167.5 L 155.5 168 L 155.5 167 Z " /><path fill="rgb(58,125,185)" stroke="rgb(58,125,185)" stroke-width="1" opacity="1" d="M 241.5 167 L 244 167.5 L 241.5 168 L 241.5 167 Z " /><path fill="rgb(58,125,185)" stroke="rgb(58,125,185)" stroke-width="1" opacity="1" d="M 162.5 168 L 165 168.5 L 162.5 169 L 162.5 168 Z " /><path fill="rgb(58,125,185)" stroke="rgb(58,125,185)" stroke-width="1" opacity="1" d="M 234.5 168 L 237 168.5 L 234.5 169 L 234.5 168 Z " /><path fill="rgb(58,125,185)" stroke="rgb(58,125,185)" stroke-width="1" opacity="1" d="M 170.5 169 L 174 169.5 L 170.5 170 L 170.5 169 Z " /><path fill="rgb(58,125,185)" stroke="rgb(58,125,185)" stroke-width="1" opacity="1" d="M 225.5 169 L 229 169.5 L 225.5 170 L 225.5 169 Z " /><path fill="rgb(58,125,185)" stroke="rgb(58,125,185)" stroke-width="1" opacity="1" d="M 183.5 170 L 194 170.5 L 183.5 171 L 183.5 170 Z " /><path fill="rgb(58,125,185)" stroke="rgb(58,125,185)" stroke-width="1" opacity="1" d="M 205.5 170 L 216 170.5 L 205.5 171 L 205.5 170 Z " /><path fill="rgb(58,125,185)" stroke="rgb(58,125,185)" stroke-width="1" opacity="1" d="M 286.5 170 L 289.5 174 L 286.5 170 Z " /><path fill="rgb(58,125,185)" stroke="rgb(58,125,185)" stroke-width="1" opacity="1" d="M 95.5 171 L 96 176.5 L 95 176.5 L 95.5 171 Z " /><path fill="rgb(58,125,185)" stroke="rgb(58,125,185)" stroke-width="1" opacity="1" d="M 111.5 171 L 110 173.5 L 113 177.5 L 109 174.5 L 111.5 171 Z " /><path fill="rgb(58,125,185)" stroke="rgb(58,125,185)" stroke-width="1" opacity="1" d="M 287.5 176 L 286.5 178 L 287.5 176 Z " /><path fill="rgb(58,125,185)" stroke="rgb(58,125,185)" stroke-width="1" opacity="1" d="M 157.5 181 L 160 181.5 L 157.5 182 L 157.5 181 Z " /><path fill="rgb(58,125,185)" stroke="rgb(58,125,185)" stroke-width="1" opacity="1" d="M 239.5 181 L 242 181.5 L 239.5 182 L 239.5 181 Z " /><path fill="rgb(58,125,185)" stroke="rgb(58,125,185)" stroke-width="1" opacity="1" d="M 301.5 181 L 300.5 183 L 301.5 181 Z " /><path fill="rgb(58,125,185)" stroke="rgb(58,125,185)" stroke-width="1" opacity="1" d="M 165.5 182 L 169 182.5 L 165.5 183 L 165.5 182 Z " /><path fill="rgb(58,125,185)" stroke="rgb(58,125,185)" stroke-width="1" opacity="1" d="M 231.5 182 L 234 182.5 L 231.5 183 L 231.5 182 Z " /><path fill="rgb(58,125,185)" stroke="rgb(58,125,185)" stroke-width="1" opacity="1" d="M 175.5 183 L 181 183.5 L 175.5 184 L 175.5 183 Z " /><path fill="rgb(58,125,185)" stroke="rgb(58,125,185)" stroke-width="1" opacity="1" d="M 218.5 183 L 224 183.5 L 218.5 184 L 218.5 183 Z " /><path fill="rgb(58,125,185)" stroke="rgb(58,125,185)" stroke-width="1" opacity="1" d="M 101.5 186 L 99.5 189 L 101.5 186 Z " /><path fill="rgb(58,125,185)" stroke="rgb(58,125,185)" stroke-width="1" opacity="1" d="M 297.5 186 L 300.5 190 L 297.5 186 Z " /><path fill="rgb(58,125,185)" stroke="rgb(58,125,185)" stroke-width="1" opacity="1" d="M 159.5 192 L 162 192.5 L 159.5 193 L 159.5 192 Z " /><path fill="rgb(58,125,185)" stroke="rgb(58,125,185)" stroke-width="1" opacity="1" d="M 237.5 192 L 240 192.5 L 237.5 193 L 237.5 192 Z " /><path fill="rgb(58,125,185)" stroke="rgb(58,125,185)" stroke-width="1" opacity="1" d="M 167.5 193 L 170 193.5 L 167.5 194 L 167.5 193 Z " /><path fill="rgb(58,125,185)" stroke="rgb(58,125,185)" stroke-width="1" opacity="1" d="M 229.5 193 L 232 193.5 L 229.5 194 L 229.5 193 Z " /><path fill="rgb(58,125,185)" stroke="rgb(58,125,185)" stroke-width="1" opacity="1" d="M 178.5 194 L 183 194.5 L 178.5 195 L 178.5 194 Z " /><path fill="rgb(58,125,185)" stroke="rgb(58,125,185)" stroke-width="1" opacity="1" d="M 216.5 194 L 222 194.5 L 216.5 195 L 216.5 194 Z " /><path fill="rgb(58,125,185)" stroke="rgb(58,125,185)" stroke-width="1" opacity="1" d="M 95.5 195 L 96 197.5 L 95 197.5 L 95.5 195 Z " /><path fill="rgb(58,125,185)" stroke="rgb(58,125,185)" stroke-width="1" opacity="1" d="M 288.5 196 L 289.5 198 L 288.5 196 Z " /><path fill="rgb(58,125,185)" stroke="rgb(58,125,185)" stroke-width="1" opacity="1" d="M 112.5 201 L 113.5 203 L 112.5 201 Z " /><path fill="rgb(58,125,185)" stroke="rgb(58,125,185)" stroke-width="1" opacity="1" d="M 155.5 205 L 158 205.5 L 155.5 206 L 155.5 205 Z " /><path fill="rgb(58,125,185)" stroke="rgb(58,125,185)" stroke-width="1" opacity="1" d="M 162.5 206 L 165 206.5 L 162.5 207 L 162.5 206 Z " /><path fill="rgb(58,125,185)" stroke="rgb(58,125,185)" stroke-width="1" opacity="1" d="M 234.5 206 L 238 206.5 L 234.5 207 L 234.5 206 Z " /><path fill="rgb(58,125,185)" stroke="rgb(58,125,185)" stroke-width="1" opacity="1" d="M 171.5 207 L 175 207.5 L 171.5 208 L 171.5 207 Z " /><path fill="rgb(58,125,185)" stroke="rgb(58,125,185)" stroke-width="1" opacity="1" d="M 224.5 207 L 228 207.5 L 224.5 208 L 224.5 207 Z " /><path fill="rgb(58,125,185)" stroke="rgb(58,125,185)" stroke-width="1" opacity="1" d="M 185.5 208 L 214 208.5 L 185.5 209 L 185.5 208 Z " /><path fill="rgb(58,125,185)" stroke="rgb(58,125,185)" stroke-width="1" opacity="1" d="M 299.5 208 L 297.5 211 L 299.5 208 Z " /><path fill="rgb(58,125,185)" stroke="rgb(58,125,185)" stroke-width="1" opacity="1" d="M 98.5 214 L 97.5 216 L 98.5 214 Z " /><path fill="rgb(58,125,185)" stroke="rgb(58,125,185)" stroke-width="1" opacity="1" d="M 164.5 217 L 167 217.5 L 164.5 218 L 164.5 217 Z " /><path fill="rgb(58,125,185)" stroke="rgb(58,125,185)" stroke-width="1" opacity="1" d="M 232.5 217 L 235 217.5 L 232.5 218 L 232.5 217 Z " /><path fill="rgb(58,125,185)" stroke="rgb(58,125,185)" stroke-width="1" opacity="1" d="M 173.5 218 L 178 218.5 L 173.5 219 L 173.5 218 Z " /><path fill="rgb(58,125,185)" stroke="rgb(58,125,185)" stroke-width="1" opacity="1" d="M 221.5 218 L 226 218.5 L 221.5 219 L 221.5 218 Z " /><path fill="rgb(58,125,185)" stroke="rgb(58,125,185)" stroke-width="1" opacity="1" d="M 112.5 219 L 111.5 221 L 112.5 219 Z " /><path fill="rgb(58,125,185)" stroke="rgb(58,125,185)" stroke-width="1" opacity="1" d="M 189.5 219 L 210 219.5 L 189.5 220 L 189.5 219 Z " /><path fill="rgb(58,125,185)" stroke="rgb(58,125,185)" stroke-width="1" opacity="1" d="M 95.5 220 L 96 225.5 L 95 225.5 L 95.5 220 Z " /><path fill="rgb(58,125,185)" stroke="rgb(58,125,185)" stroke-width="1" opacity="1" d="M 109.5 222 L 112 225.5 L 109 223.5 L 109.5 222 Z " /><path fill="rgb(58,125,185)" stroke="rgb(58,125,185)" stroke-width="1" opacity="1" d="M 289.5 223 L 287.5 226 L 289.5 223 Z " /><path fill="rgb(58,125,185)" stroke="rgb(58,125,185)" stroke-width="1" opacity="1" d="M 244.5 229 L 247 229.5 L 244.5 230 L 244.5 229 Z " /><path fill="rgb(58,125,185)" stroke="rgb(58,125,185)" stroke-width="1" opacity="1" d="M 159.5 230 L 162 230.5 L 159.5 231 L 159.5 230 Z " /><path fill="rgb(58,125,185)" stroke="rgb(58,125,185)" stroke-width="1" opacity="1" d="M 237.5 230 L 240 230.5 L 237.5 231 L 237.5 230 Z " /><path fill="rgb(58,125,185)" stroke="rgb(58,125,185)" stroke-width="1" opacity="1" d="M 98.5 231 L 102 235.5 L 98 238.5 L 101 234.5 L 98.5 231 Z " /><path fill="rgb(58,125,185)" stroke="rgb(58,125,185)" stroke-width="1" opacity="1" d="M 167.5 231 L 171 231.5 L 167.5 232 L 167.5 231 Z " /><path fill="rgb(58,125,185)" stroke="rgb(58,125,185)" stroke-width="1" opacity="1" d="M 228.5 231 L 232 231.5 L 228.5 232 L 228.5 231 Z " /><path fill="rgb(58,125,185)" stroke="rgb(58,125,185)" stroke-width="1" opacity="1" d="M 300.5 231 L 298 234.5 L 301 238.5 L 297 235.5 L 300.5 231 Z " /><path fill="rgb(58,125,185)" stroke="rgb(58,125,185)" stroke-width="1" opacity="1" d="M 179.5 232 L 185 232.5 L 179.5 233 L 179.5 232 Z " /><path fill="rgb(58,125,185)" stroke="rgb(58,125,185)" stroke-width="1" opacity="1" d="M 214.5 232 L 220 232.5 L 214.5 233 L 214.5 232 Z " /><path fill="rgb(58,125,185)" stroke="rgb(58,125,185)" stroke-width="1" opacity="1" d="M 161.5 241 L 164 241.5 L 161.5 242 L 161.5 241 Z " /><path fill="rgb(58,125,185)" stroke="rgb(58,125,185)" stroke-width="1" opacity="1" d="M 235.5 241 L 238 241.5 L 235.5 242 L 235.5 241 Z " /><path fill="rgb(58,125,185)" stroke="rgb(58,125,185)" stroke-width="1" opacity="1" d="M 169.5 242 L 173 242.5 L 169.5 243 L 169.5 242 Z " /><path fill="rgb(58,125,185)" stroke="rgb(58,125,185)" stroke-width="1" opacity="1" d="M 226.5 242 L 230 242.5 L 226.5 243 L 226.5 242 Z " /><path fill="rgb(58,125,185)" stroke="rgb(58,125,185)" stroke-width="1" opacity="1" d="M 181.5 243 L 189 243.5 L 181.5 244 L 181.5 243 Z " /><path fill="rgb(58,125,185)" stroke="rgb(58,125,185)" stroke-width="1" opacity="1" d="M 210.5 243 L 218 243.5 L 210.5 244 L 210.5 243 Z " /><path fill="rgb(58,125,185)" stroke="rgb(58,125,185)" stroke-width="1" opacity="1" d="M 95.5 244 L 96 249.5 L 95 249.5 L 95.5 244 Z " /><path fill="rgb(58,125,185)" stroke="rgb(58,125,185)" stroke-width="1" opacity="1" d="M 111.5 244 L 110 246.5 L 109.5 248 L 109 246.5 L 111.5 244 Z " /><path fill="rgb(58,125,185)" stroke="rgb(58,125,185)" stroke-width="1" opacity="1" d="M 287.5 244 L 289.5 247 L 287.5 244 Z " /><path fill="rgb(58,125,185)" stroke="rgb(58,125,185)" stroke-width="1" opacity="1" d="M 111.5 249 L 112.5 251 L 111.5 249 Z " /><path fill="rgb(58,125,185)" stroke="rgb(58,125,185)" stroke-width="1" opacity="1" d="M 150.5 253 L 153 253.5 L 150.5 254 L 150.5 253 Z " /><path fill="rgb(58,125,185)" stroke="rgb(58,125,185)" stroke-width="1" opacity="1" d="M 246.5 253 L 249 253.5 L 246.5 254 L 246.5 253 Z " /><path fill="rgb(58,125,185)" stroke="rgb(58,125,185)" stroke-width="1" opacity="1" d="M 97.5 254 L 98.5 256 L 97.5 254 Z " /><path fill="rgb(58,125,185)" stroke="rgb(58,125,185)" stroke-width="1" opacity="1" d="M 164.5 255 L 167 255.5 L 164.5 256 L 164.5 255 Z " /><path fill="rgb(58,125,185)" stroke="rgb(58,125,185)" stroke-width="1" opacity="1" d="M 232.5 255 L 235 255.5 L 232.5 256 L 232.5 255 Z " /><path fill="rgb(58,125,185)" stroke="rgb(58,125,185)" stroke-width="1" opacity="1" d="M 173.5 256 L 179 256.5 L 173.5 257 L 173.5 256 Z " /><path fill="rgb(58,125,185)" stroke="rgb(58,125,185)" stroke-width="1" opacity="1" d="M 220.5 256 L 226 256.5 L 220.5 257 L 220.5 256 Z " /><path fill="rgb(58,125,185)" stroke="rgb(58,125,185)" stroke-width="1" opacity="1" d="M 193.5 257 L 206 257.5 L 193.5 258 L 193.5 257 Z " /><path fill="rgb(58,125,185)" stroke="rgb(58,125,185)" stroke-width="1" opacity="1" d="M 103.5 260 L 104.5 262 L 103.5 260 Z " /><path fill="rgb(58,125,185)" stroke="rgb(58,125,185)" stroke-width="1" opacity="1" d="M 244.5 264 L 247 264.5 L 244.5 265 L 244.5 264 Z " /><path fill="rgb(58,125,185)" stroke="rgb(58,125,185)" stroke-width="1" opacity="1" d="M 238.5 265 L 241 265.5 L 238.5 266 L 238.5 265 Z " /><path fill="rgb(58,125,185)" stroke="rgb(58,125,185)" stroke-width="1" opacity="1" d="M 166.5 266 L 169 266.5 L 166.5 267 L 166.5 266 Z " /><path fill="rgb(58,125,185)" stroke="rgb(58,125,185)" stroke-width="1" opacity="1" d="M 230.5 266 L 233 266.5 L 230.5 267 L 230.5 266 Z " /><path fill="rgb(58,125,185)" stroke="rgb(58,125,185)" stroke-width="1" opacity="1" d="M 176.5 267 L 181 267.5 L 176.5 268 L 176.5 267 Z " /><path fill="rgb(58,125,185)" stroke="rgb(58,125,185)" stroke-width="1" opacity="1" d="M 218.5 267 L 223 267.5 L 218.5 268 L 218.5 267 Z " /><path fill="rgb(58,125,185)" stroke="rgb(58,125,185)" stroke-width="1" opacity="1" d="M 154.5 278 L 157 278.5 L 154.5 279 L 154.5 278 Z " /><path fill="rgb(58,125,185)" stroke="rgb(58,125,185)" stroke-width="1" opacity="1" d="M 161.5 279 L 164 279.5 L 161.5 280 L 161.5 279 Z " /><path fill="rgb(58,125,185)" stroke="rgb(58,125,185)" stroke-width="1" opacity="1" d="M 235.5 279 L 238 279.5 L 235.5 280 L 235.5 279 Z " /><path fill="rgb(58,125,185)" stroke="rgb(58,125,185)" stroke-width="1" opacity="1" d="M 169.5 280 L 174 280.5 L 169.5 281 L 169.5 280 Z " /><path fill="rgb(58,125,185)" stroke="rgb(58,125,185)" stroke-width="1" opacity="1" d="M 225.5 280 L 230 280.5 L 225.5 281 L 225.5 280 Z " /><path fill="rgb(58,125,185)" stroke="rgb(58,125,185)" stroke-width="1" opacity="1" d="M 183.5 281 L 194 281.5 L 183.5 282 L 183.5 281 Z " /><path fill="rgb(58,125,185)" stroke="rgb(58,125,185)" stroke-width="1" opacity="1" d="M 205.5 281 L 216 281.5 L 205.5 282 L 205.5 281 Z " /><path fill="rgb(0,87,165)" stroke="rgb(0,87,165)" stroke-width="1" opacity="1" d="M 175.5 67 L 223.5 67 L 224.5 68 L 233.5 68 L 234.5 69 L 247.5 70 L 265.5 74 L 280.5 79 Q 292.3 83.2 300 91.5 Q 303.7 95.3 304 102.5 Q 302 109.5 297 113.5 Q 303.5 117 304 126.5 Q 302.3 133.8 297 137.5 Q 303 141.5 304 150.5 Q 302.8 158.3 297 161.5 Q 303.2 165.8 304 175.5 Q 302 182.5 297 186.5 Q 303.5 190 304 199.5 Q 302.9 207.4 297 210.5 Q 303.3 214.7 304 224.5 Q 302 231.5 297 235.5 Q 303.5 239 304 248.5 Q 301.8 256.9 295.5 261 Q 280 271.5 258.5 276 L 242.5 279 L 235.5 279 L 234.5 280 L 225.5 280 L 224.5 281 L 194.5 282 L 193.5 281 L 164.5 280 L 129.5 273 L 106.5 263 L 99 256.5 Q 94.3 252.7 96 242.5 L 102 234.5 Q 93.9 231.6 96 218.5 L 102 210.5 Q 96.3 206.7 95 198.5 Q 96.3 190.3 102 186.5 L 96 178.5 L 96 169.5 L 102 161.5 L 96 154.5 L 96 145.5 L 102 137.5 Q 96.3 133.7 95 125.5 L 98 117.5 L 102 112 Q 99.3 113.1 100 110.5 Q 94 107.5 96 96.5 L 101.5 89 L 108.5 84 L 126.5 76 L 151.5 70 L 157.5 70 L 165.5 68 L 174.5 68 L 175.5 67 Z M 179 80 L 178 81 L 168 81 L 160 83 L 154 83 L 140 86 L 122 92 L 113 97 L 109 102 L 114 105 L 144 96 L 161 93 L 169 93 L 170 92 L 181 92 L 182 91 L 218 91 L 219 92 L 239 93 L 265 98 L 283 105 L 287 105 L 290 101 L 284 95 L 273 90 L 246 83 L 233 82 L 232 81 L 222 81 L 221 80 L 179 80 Z M 185 104 L 184 105 L 172 105 L 171 106 L 156 107 L 137 112 Q 132 111 133 114 L 149 118 L 168 120 L 169 121 L 179 121 L 180 122 L 220 122 L 221 121 L 231 121 L 232 120 L 251 118 L 267 114 L 266 112 L 254 109 L 237 106 L 217 105 L 216 104 L 185 104 Z M 114 121 L 110 123 L 109 126 L 114 130 L 124 135 L 139 140 L 166 145 L 192 146 L 193 147 L 225 146 L 226 145 L 242 144 L 265 139 L 286 130 L 290 125 L 286 121 L 258 130 L 241 133 L 234 133 L 233 134 L 223 134 L 222 135 L 178 135 L 177 134 L 159 133 L 138 129 L 114 121 Z M 115 145 L 113 146 L 109 151 L 115 155 L 134 163 L 156 168 L 170 169 L 171 170 L 183 170 L 184 171 L 216 171 L 217 170 L 229 170 L 230 169 L 244 168 L 272 161 L 285 155 L 290 151 L 286 145 L 274 150 L 250 156 L 244 156 L 237 158 L 228 158 L 227 159 L 213 159 L 212 160 L 188 160 L 187 159 L 173 159 L 172 158 L 157 157 L 133 152 L 115 145 Z M 114 170 L 112 171 L 109 175 L 118 181 L 136 188 L 160 193 L 178 194 L 179 195 L 222 195 L 223 194 L 232 194 L 233 193 L 246 192 L 273 185 L 284 180 L 290 175 L 287 170 L 283 170 L 272 175 L 252 180 L 232 182 L 231 183 L 219 183 L 218 184 L 182 184 L 181 183 L 161 182 L 139 178 L 117 170 L 114 170 Z M 114 194 L 109 199 L 119 206 L 135 212 L 158 217 L 173 218 L 174 219 L 189 219 L 190 220 L 226 219 L 227 218 L 248 216 L 274 209 L 286 203 L 290 198 L 286 194 L 258 203 L 242 206 L 235 206 L 234 207 L 225 207 L 224 208 L 176 208 L 175 207 L 166 207 L 134 201 L 114 194 Z M 115 218 L 113 219 L 109 224 Q 120 233 137 237 L 162 242 L 181 243 L 182 244 L 218 244 L 219 243 L 230 243 L 231 242 L 250 240 L 275 233 L 288 226 L 290 223 L 285 218 L 277 222 L 260 227 L 237 231 L 215 232 L 214 233 L 186 233 L 185 232 L 172 232 L 171 231 L 156 230 L 129 224 L 115 218 Z M 114 243 L 112 244 L 109 248 L 116 253 L 136 261 L 148 264 L 166 266 L 167 267 L 176 267 L 177 268 L 223 268 L 224 267 L 241 266 L 264 261 Q 277 258 287 251 L 290 247 L 286 243 L 257 252 L 240 255 L 233 255 L 232 256 L 221 256 L 220 257 L 180 257 L 179 256 L 160 255 L 131 249 L 117 243 L 114 243 Z " /></svg>